<svg enable-background="new 0 0 57 30.7" viewBox="0 0 57 30.7" xmlns="http://www.w3.org/2000/svg"><g fill="#00b4cb"><path d="m2.7 2.6c-1.8 1.8-2.7 4.1-2.7 6.5v.2 21.3h1.1v-21.3-.1c0-4.5 3.6-8.1 8-8.1 4.3 0 8 3.7 8 8.1v.2c0 2-.9 4-2.3 5.4-.3-.2-.6-.5-.9-.7 1.3-1.3 2-3 2.1-4.8v-.1c0-1.8-.7-3.6-2-4.9s-3-2.1-4.9-2.1-3.6.8-4.9 2.1c-1.2 1.3-1.9 3-2 4.8v.1 21.4h1.1v-21.2-.1c-0-1.6.6-3.1 1.7-4.3 1-1.1 2.5-1.7 4.1-1.7s3 .6 4.1 1.8c1.1 1.1 1.7 2.6 1.7 4.1v.1c0 1.6-.8 3.2-2 4.3-.4-.2-.9-.4-1.3-.5 1.3-.8 2.1-2.3 2.2-3.8v-.1c0-2.5-2.1-4.6-4.6-4.6s-4.6 2.1-4.6 4.6v.1 21.5h1.1v-21.5-.1c0-2 1.5-3.6 3.5-3.6s3.6 1.5 3.6 3.5v.1.1c-.1 1.9-1.6 3.5-3.6 3.5v1.1h.2c.9 0 1.8.2 2.7.5-.8.4-1.8.7-2.7.7v.9c.9 0 1.8.2 2.7.6-.8.3-1.7.4-2.6.4h-.5v1.1c2 0 3.6 1.6 3.6 3.6s-1.6 3.6-3.6 3.6v1.1c2.6 0 4.7-2.1 4.7-4.6 0-1.6-.8-3.1-2.2-3.9.4-.1.9-.3 1.3-.5.1.1.2.2.4.3 1.1 1.1 1.7 2.5 1.7 4.1s-.6 3-1.8 4.1c-1.1 1.1-2.6 1.7-4.2 1.7v1.1c1.8 0 3.6-.7 4.9-2s2.1-3 2.1-4.9c0-1.8-.7-3.6-2-4.8 0 0-.1-.1-.1-.1.3-.2.6-.4.9-.7 1.5 1.5 2.3 3.5 2.3 5.6s-.9 4.1-2.4 5.6-3.6 2.3-5.7 2.3v1.1c2.4 0 4.7-.9 6.4-2.6s2.7-4 2.7-6.4-.9-4.6-2.6-6.3c1.6-1.7 2.6-3.9 2.6-6.2v-.2c.1-5-4.1-9.1-8.9-9.1-2.4 0-4.7.9-6.4 2.6m9 12.9c.4-.2.8-.4 1.2-.7.3.2.7.4 1 .6-.3.2-.7.5-1 .7-.3-.3-.7-.5-1.2-.6"/><path d="m25.8 9.2c0-1.9 1.6-3.5 3.5-3.6h.1 5.6v-1.1h-5.5-.1c-2.5 0-4.6 2.1-4.7 4.6v5c-.4.2-.8.5-1.1.8v-5.6c0-3.2 2.6-5.8 5.6-6h.2 5.6v-1.1h-5.5-.3c-3.6.1-6.7 3.2-6.8 6.9v.1 6.8c-.4.5-.8 1.1-1.1 1.7v-8.4-.1c.1-4.3 3.5-7.9 7.8-8h.3 5.6v-1.2l-5.6.1c-5-.1-9.1 3.9-9.2 8.9v.2.2 12.7.1 8.5h1.1v-8.6-.1c0-1.4.4-2.9 1.1-4.1v12.8h1.1v-8.5-.1c0-1.3.4-2.5 1.2-3.5v12.1h1.1v-8.5-.2c.1-1.9 1.6-3.5 3.5-3.5h5.7v-1.1h-5.6c-1.4 0-2.8.7-3.7 1.8v-1.7c1-.8 2.2-1.3 3.5-1.3h5.7v-1.2h-5.6c-1.3 0-2.6.4-3.7 1.1v-1.3c1.1-.6 2.3-.9 3.5-.9h5.7v-1.1h-5.6c-1.3 0-2.5.3-3.7.8zm-2.2 7.2.2-.2c.3-.3.6-.6 1-.8v1.5c-.4.4-.8.9-1.1 1.4v-1.9z"/><path d="m37.2.1v1.1h11.1c-.6.3-1.1.7-1.6 1.1h-9.5v1.1h8.4c-.3.4-.6.8-.9 1.2h-7.5v1.1h7c-.5 1.1-.7 2.4-.7 3.6v21.4h1.1v-21.4c0-1.3.3-2.5.9-3.6h1.4c-.7 1.1-1 2.3-1.1 3.6v21.5h1.1v-21.3c0-1.3.5-2.6 1.3-3.7h1.6c-1.1.9-1.7 2.2-1.8 3.6v21.5h1.1v-21.4c0-1.9 1.5-3.5 3.5-3.6h4.4v-1.3h-4.6-3.3c.9-.7 2-1.1 3.2-1.2h4.7v-1.1s-4.7 0-4.8 0h-3.7c1.1-.7 2.4-1.1 3.8-1.1h4.7v-1.1zm9.7 3.4c.1 0 .1-.1.2-.1h1.9c-.5.3-1 .8-1.4 1.2h-1.6c.3-.4.6-.7.9-1.1"/></g></svg>