<?xml version="1.0" encoding="utf-8"?>
<!-- Generator: Adobe Illustrator 22.1.0, SVG Export Plug-In . SVG Version: 6.00 Build 0)  -->
<svg version="1.1" id="Layer_1" xmlns="http://www.w3.org/2000/svg" xmlns:xlink="http://www.w3.org/1999/xlink" x="0px" y="0px"
	 viewBox="0 0 57 30.7" style="enable-background:new 0 0 57 30.7;" xml:space="preserve">
<style type="text/css">
	.st0{fill:#00B4CB;}
</style>
<title>BFT Logo</title>
<g id="Layer_2_1_">
	<g id="Layer_1-2">
		<path class="st0" d="M2.7,2.6C0.9,4.4,0,6.7,0,9.1l0,0.2v21.3h1.1V9.3l0-0.1c0-4.5,3.6-8.1,8-8.1c4.3,0,8,3.7,8,8.1l0,0.2
			c0,2-0.9,4-2.3,5.4c-0.3-0.2-0.6-0.5-0.9-0.7c1.3-1.3,2-3,2.1-4.8V9.2c0-1.8-0.7-3.6-2-4.9c-1.3-1.3-3-2.1-4.9-2.1
			C7.2,2.2,5.5,3,4.2,4.3c-1.2,1.3-1.9,3-2,4.8l0,0.1v21.4h1.1V9.4l0-0.1C3.3,7.7,3.9,6.2,5,5C6,3.9,7.5,3.3,9.1,3.3
			c1.6,0,3,0.6,4.1,1.8c1.1,1.1,1.7,2.6,1.7,4.1l0,0.1c0,1.6-0.8,3.2-2,4.3c-0.4-0.2-0.9-0.4-1.3-0.5c1.3-0.8,2.1-2.3,2.2-3.8l0-0.1
			c0-2.5-2.1-4.6-4.6-4.6c-2.5,0-4.6,2.1-4.6,4.6l0,0.1v21.5h1.1V9.3l0-0.1c0-2,1.5-3.6,3.5-3.6c2,0,3.6,1.5,3.6,3.5
			c0,0,0,0.1,0,0.1l0,0.1c-0.1,1.9-1.6,3.5-3.6,3.5h0v1.1l0.2,0c0.9,0,1.8,0.2,2.7,0.5c-0.8,0.4-1.8,0.7-2.7,0.7h0V16h0
			c0.9,0,1.8,0.2,2.7,0.6c-0.8,0.3-1.7,0.4-2.6,0.4H9v1.1h0c2,0,3.6,1.6,3.6,3.6S11,25.3,9,25.3c0,0,0,0,0,0h0v1.1h0
			c2.6,0,4.7-2.1,4.7-4.6c0-1.6-0.8-3.1-2.2-3.9c0.4-0.1,0.9-0.3,1.3-0.5c0.1,0.1,0.2,0.2,0.4,0.3c1.1,1.1,1.7,2.5,1.7,4.1
			c0,1.6-0.6,3-1.8,4.1c-1.1,1.1-2.6,1.7-4.2,1.7h0v1.1h0c1.8,0,3.6-0.7,4.9-2c1.3-1.3,2.1-3,2.1-4.9c0-1.8-0.7-3.6-2-4.8
			c0,0-0.1-0.1-0.1-0.1c0.3-0.2,0.6-0.4,0.9-0.7c1.5,1.5,2.3,3.5,2.3,5.6c0,2.1-0.9,4.1-2.4,5.6c-1.5,1.5-3.6,2.3-5.7,2.3h0v1.1h0
			c2.4,0,4.7-0.9,6.4-2.6c1.7-1.7,2.7-4,2.7-6.4c0-2.4-0.9-4.6-2.6-6.3c1.6-1.7,2.6-3.9,2.6-6.2l0-0.2C18.1,4.1,13.9,0,9.1,0
			C6.7,0,4.4,0.9,2.7,2.6 M11.7,15.5c0.4-0.2,0.8-0.4,1.2-0.7c0.3,0.2,0.7,0.4,1,0.6c-0.3,0.2-0.7,0.5-1,0.7
			C12.6,15.8,12.2,15.6,11.7,15.5"/>
		<path class="st0" d="M25.8,9.2c0-1.9,1.6-3.5,3.5-3.6l0.1,0H35V4.5h-5.5l-0.1,0c-2.5,0-4.6,2.1-4.7,4.6l0,0v5
			c-0.4,0.2-0.8,0.5-1.1,0.8V9.3l0,0c0-3.2,2.6-5.8,5.6-6l0.2,0H35V2.2l-5.5,0l-0.3,0c-3.6,0.1-6.7,3.2-6.8,6.9l0,0.1V16
			c-0.4,0.5-0.8,1.1-1.1,1.7V9.3l0-0.1c0.1-4.3,3.5-7.9,7.8-8l0.3,0H35V0l-5.6,0.1c-5-0.1-9.1,3.9-9.2,8.9c0,0.1,0,0.1,0,0.2l0,0.2
			l0,12.7v0.1l0,8.5h1.1v-8.6l0-0.1c0-1.4,0.4-2.9,1.1-4.1v12.8h1.1v-8.5l0-0.1c0-1.3,0.4-2.5,1.2-3.5v12.1h1.1v-8.5l0-0.2
			c0.1-1.9,1.6-3.5,3.5-3.5l5.7,0v-1.1l-5.6,0c-1.4,0-2.8,0.7-3.7,1.8v-1.7c1-0.8,2.2-1.3,3.5-1.3l5.7,0V15l-5.6,0
			c-1.3,0-2.6,0.4-3.7,1.1v-1.3c1.1-0.6,2.3-0.9,3.5-0.9l5.7,0v-1.1l-5.6,0c-1.3,0-2.5,0.3-3.7,0.8L25.8,9.2L25.8,9.2z M23.6,16.4
			c0.1-0.1,0.1-0.1,0.2-0.2c0.3-0.3,0.6-0.6,1-0.8v1.5c-0.4,0.4-0.8,0.9-1.1,1.4V16.4z"/>
		<path class="st0" d="M37.2,0.1v1.1h11.1c-0.6,0.3-1.1,0.7-1.6,1.1h-9.5v1.1h8.4c-0.3,0.4-0.6,0.8-0.9,1.2h-7.5v1.1h7
			c-0.5,1.1-0.7,2.4-0.7,3.6v0l0,0l0,21.4h1.1l0-21.4l0,0v0c0-1.3,0.3-2.5,0.9-3.6h1.4c-0.7,1.1-1,2.3-1.1,3.6l0,0l0,21.5h1.1
			l0-21.3l0,0v0c0-1.3,0.5-2.6,1.3-3.7h1.6c-1.1,0.9-1.7,2.2-1.8,3.6l0,0l0,21.5h1.1l0-21.4l0,0v0c0-1.9,1.5-3.5,3.5-3.6H57V4.6
			c0,0-4.6,0-4.6,0h-3.3c0.9-0.7,2-1.1,3.2-1.2H57V2.3c0,0-4.7,0-4.8,0h-3.7c1.1-0.7,2.4-1.1,3.8-1.1H57V0.1H37.2z M46.9,3.5
			C47,3.5,47,3.4,47.1,3.4H49c-0.5,0.3-1,0.8-1.4,1.2H46C46.3,4.2,46.6,3.9,46.9,3.5"/>
	</g>
</g>
</svg>
